<svg id="Layer_1" data-name="Layer 1" xmlns="http://www.w3.org/2000/svg" viewBox="0 0 400 400"><title>Artboard 1</title><path d="M366.28,128.49a174.33,174.33,0,0,0-95.45-95.23q-32.7-13.5-70.83-13.5-37.92,0-70.6,13.5A176.42,176.42,0,0,0,72.08,71.17a174.16,174.16,0,0,0-38.36,57.32Q20,161.42,20,200q0,38.37,13.74,71.28A174.06,174.06,0,0,0,72.08,328.6a177.68,177.68,0,0,0,57.32,38q32.68,13.62,70.6,13.62,38.15,0,70.83-13.62a175,175,0,0,0,95.45-95.34Q380,238.37,380,200,380,161.41,366.28,128.49ZM336.77,258.91a143.13,143.13,0,0,1-78.54,78.43A151,151,0,0,1,200,348.46a150.34,150.34,0,0,1-58-11.12,143.84,143.84,0,0,1-78.66-78.43Q52,231.79,52,200q0-32,11.35-59.14A143.15,143.15,0,0,1,94.9,93.76,145.3,145.3,0,0,1,142,62.66a150.34,150.34,0,0,1,58-11.12,151,151,0,0,1,58.23,11.12,145.4,145.4,0,0,1,47.1,31.1,141.77,141.77,0,0,1,31.44,47.1Q348,168,348,200,348,231.79,336.77,258.91Z"/><path d="M230.83,138.22a43.08,43.08,0,0,1,6.85,4.46q12.94,10.33,16.57,25.09h31.56a72.79,72.79,0,0,0-13.17-31.9,74.51,74.51,0,0,0-27.81-23q-17.36-8.62-41-8.63-27.24,0-47.33,11.69a80.27,80.27,0,0,0-31.22,33q-11.11,21.35-11.12,50.63,0,29.73,11.12,51.3a79.72,79.72,0,0,0,31.33,33.26q20.21,11.68,47.45,11.69,34.95,0,56.29-17.71t25.43-44.72H254.25q-4.31,16.57-17.59,25.42a46.55,46.55,0,0,1-5.41,3.11l3.25,6.61a1.51,1.51,0,0,1-.69,2,1.41,1.41,0,0,1-.66.15,1.5,1.5,0,0,1-1.35-.83l-3.28-6.7a53.32,53.32,0,0,1-6.35,2.19L225.42,278a1.5,1.5,0,0,1-1.08,1.82,1.64,1.64,0,0,1-.37.05,1.51,1.51,0,0,1-1.46-1.13l-3.25-12.69a65.25,65.25,0,0,1-6.94,1.13l.87,6.92a1.5,1.5,0,0,1-1.3,1.68h-.19a1.5,1.5,0,0,1-1.49-1.31l-.88-7c-1.78.12-3.6.19-5.47.19q-17.25,0-30.19-8.17c-.67-.42-1.3-.89-1.94-1.34l.06.1-32.45-6.19,12.3-20.74q-5.2-13.78-5.21-31.76,0-17.66,5-31.05l-12.06-20.34,31.7-6q13.58-9.75,32.82-9.77c2,0,3.91.08,5.79.22l1-9.93a1.5,1.5,0,0,1,3,.3l-1,9.92a58.83,58.83,0,0,1,6.15,1l4.59-14.52a1.5,1.5,0,0,1,2.86.91l-4.54,14.35a48.23,48.23,0,0,1,6.42,2.29l3.58-7.78a1.5,1.5,0,1,1,2.72,1.26Z"/></svg>