<svg id="Layer_1" data-name="Layer 1" xmlns="http://www.w3.org/2000/svg" viewBox="0 0 500 500"><defs><style>.cls-1{stroke:#000;stroke-miterlimit:10;stroke-width:3px;}</style></defs><title>Artboard 1</title><path class="cls-1" d="M108.07,471.14a20.89,20.89,0,0,1-7.84-9,35.4,35.4,0,0,1,0-27.48,21.16,21.16,0,0,1,7.88-9,22,22,0,0,1,11.95-3.2,23,23,0,0,1,9.88,2.07,19.31,19.31,0,0,1,7.29,5.82,19.09,19.09,0,0,1,3.67,8.77h-6.33a13.65,13.65,0,0,0-2.87-5.74,14.32,14.32,0,0,0-5.06-3.79,15.69,15.69,0,0,0-6.58-1.36,14.75,14.75,0,0,0-8.54,2.49,16.14,16.14,0,0,0-5.63,7,26,26,0,0,0-2,10.65,26.42,26.42,0,0,0,2,10.67,16,16,0,0,0,5.64,7,14.94,14.94,0,0,0,8.59,2.48,18.22,18.22,0,0,0,6.63-1.14,13.24,13.24,0,0,0,4.94-3.31,13,13,0,0,0,2.9-5.22h6.33a20.39,20.39,0,0,1-3.95,8.4,17.78,17.78,0,0,1-7.06,5.26,25.28,25.28,0,0,1-9.83,1.79A22.08,22.08,0,0,1,108.07,471.14Z"/><path class="cls-1" d="M181.79,425.62a20.82,20.82,0,0,1,8,9,35.1,35.1,0,0,1,0,27.57,20.86,20.86,0,0,1-8,9,25.47,25.47,0,0,1-24.61,0,20.9,20.9,0,0,1-8-9,35.1,35.1,0,0,1,0-27.57,20.87,20.87,0,0,1,8-9,25.54,25.54,0,0,1,24.61,0ZM160.6,430.7a16,16,0,0,0-5.79,7,29.21,29.21,0,0,0,0,21.4,15.29,15.29,0,0,0,14.67,9.46,15.76,15.76,0,0,0,8.89-2.47,16,16,0,0,0,5.77-7,29.08,29.08,0,0,0,0-21.4,16.08,16.08,0,0,0-5.77-7,17.22,17.22,0,0,0-17.77,0Z"/><path class="cls-1" d="M218.32,423.29a16.59,16.59,0,0,1,8.35,2,14.85,14.85,0,0,1,5.67,5.67,18.14,18.14,0,0,1,0,16.81,14.82,14.82,0,0,1-5.71,5.7,16.7,16.7,0,0,1-8.37,2.06H206.67v17.91h-6.26v-50.2ZM206.67,450h10q5.38,0,8.33-2.8a11.78,11.78,0,0,0,0-15.57q-2.94-2.77-8.33-2.78h-10Z"/><path class="cls-1" d="M254.68,473.49v-21.6l-17.81-28.6H244l13.71,22.54h.2l13.71-22.54h7.13l-17.81,28.6v21.6Z"/><path class="cls-1" d="M290.72,471.14a20.83,20.83,0,0,1-7.84-9,35.4,35.4,0,0,1,0-27.48,21.16,21.16,0,0,1,7.88-9,22,22,0,0,1,12-3.2,23,23,0,0,1,9.88,2.07,19.31,19.31,0,0,1,7.29,5.82,19.09,19.09,0,0,1,3.67,8.77h-6.33a13.65,13.65,0,0,0-2.87-5.74,14.32,14.32,0,0,0-5.06-3.79,15.69,15.69,0,0,0-6.58-1.36,14.75,14.75,0,0,0-8.54,2.49,16.14,16.14,0,0,0-5.63,7,26,26,0,0,0-2,10.65,26.42,26.42,0,0,0,2,10.67,16,16,0,0,0,5.64,7,14.92,14.92,0,0,0,8.59,2.48,18.22,18.22,0,0,0,6.63-1.14,13.24,13.24,0,0,0,4.94-3.31,13,13,0,0,0,2.9-5.22h6.33a20.39,20.39,0,0,1-3.95,8.4,17.78,17.78,0,0,1-7.06,5.26,25.28,25.28,0,0,1-9.83,1.79A22.08,22.08,0,0,1,290.72,471.14Z"/><path class="cls-1" d="M358.53,459.12h-20l-5.05,14.37h-6.57l18.51-50.2h6.19l18.51,50.2h-6.58ZM340.4,453.8h16.28l-8-22.89h-.21Z"/><path class="cls-1" d="M381.63,473.49V428.93H365.8v-5.64h37.92v5.64H387.89v44.56Z"/><path d="M416.28,135a174.33,174.33,0,0,0-95.45-95.23q-32.7-13.5-70.83-13.5-37.92,0-70.6,13.5a176.42,176.42,0,0,0-57.32,37.91A174.16,174.16,0,0,0,83.72,135Q70,168,70,206.55q0,38.37,13.74,71.28a174.06,174.06,0,0,0,38.36,57.32,177.68,177.68,0,0,0,57.32,38q32.68,13.62,70.6,13.62,38.14,0,70.83-13.62a175,175,0,0,0,95.45-95.34Q430,244.92,430,206.55,430,168,416.28,135ZM386.77,265.46a143.13,143.13,0,0,1-78.54,78.43A151,151,0,0,1,250,355a150.34,150.34,0,0,1-58-11.12,143.84,143.84,0,0,1-78.66-78.43Q102,238.34,102,206.55q0-32,11.35-59.13a143.09,143.09,0,0,1,31.56-47.11A145.3,145.3,0,0,1,192,69.21a150.34,150.34,0,0,1,58-11.12,151,151,0,0,1,58.23,11.12,145.4,145.4,0,0,1,47.1,31.1,141.71,141.71,0,0,1,31.44,47.11Q398,174.54,398,206.55,398,238.34,386.77,265.46Z"/><path d="M280.83,144.77a43.08,43.08,0,0,1,6.85,4.46q12.94,10.34,16.57,25.09h31.56a72.79,72.79,0,0,0-13.17-31.9,74.51,74.51,0,0,0-27.81-23q-17.35-8.62-41-8.63-27.24,0-47.33,11.69a80.27,80.27,0,0,0-31.22,33q-11.12,21.35-11.12,50.63,0,29.73,11.12,51.3a79.72,79.72,0,0,0,31.33,33.26q20.21,11.68,47.45,11.69,34.95,0,56.29-17.71t25.43-44.72H304.25q-4.31,16.58-17.59,25.42a46.55,46.55,0,0,1-5.41,3.11l3.25,6.61a1.51,1.51,0,0,1-.69,2,1.41,1.41,0,0,1-.66.15,1.5,1.5,0,0,1-1.35-.83l-3.28-6.7a53.32,53.32,0,0,1-6.35,2.19l3.25,12.68a1.5,1.5,0,0,1-1.08,1.82,1.22,1.22,0,0,1-.37.05,1.51,1.51,0,0,1-1.46-1.13l-3.25-12.69a65.25,65.25,0,0,1-6.94,1.13l.87,6.93a1.5,1.5,0,0,1-1.3,1.67h-.19a1.5,1.5,0,0,1-1.49-1.31l-.88-7c-1.78.12-3.6.19-5.47.19q-17.25,0-30.19-8.17c-.67-.42-1.3-.89-1.94-1.33l.06.09-32.45-6.19,12.3-20.74q-5.2-13.79-5.21-31.76,0-17.65,5-31l-12.06-20.34,31.7-6q13.58-9.75,32.82-9.77c2,0,3.91.08,5.79.22l1-9.93a1.5,1.5,0,0,1,3,.3l-1,9.92a58.83,58.83,0,0,1,6.15,1l4.59-14.52a1.5,1.5,0,0,1,2.86.91l-4.54,14.35a48.23,48.23,0,0,1,6.42,2.29l3.58-7.77a1.5,1.5,0,1,1,2.72,1.25Z"/></svg>